<svg width="16" height="16" fill="none" xmlns="http://www.w3.org/2000/svg"><circle cx="8" cy="8" r="8" fill="#fff"/><path d="M4.88 11.384c-.32 0-.587-.107-.8-.32a.998.998 0 0 1-.312-.728c0-.283.067-.544.2-.784.133-.245.323-.472.568-.68.25-.208.576-.379.976-.512a4.49 4.49 0 0 1 1.328-.232c.283-.699.533-1.48.752-2.344a.75.75 0 0 0 .008-.12c0-.053-.027-.099-.08-.136v-.08a6.915 6.915 0 0 1 1.256-.128l.48.032c.139.245.216.587.232 1.024.016.432.027 1.184.032 2.256.576.25 1.07.568 1.48.952a.551.551 0 0 1-.128.208.784.784 0 0 1-.168.144l-.08.048a4.613 4.613 0 0 0-1.096-.792c.01.304.04.56.088.768.075.341.163.512.264.512a.672.672 0 0 0 .208-.04l.12.312c-.368.235-.72.352-1.056.352-.555 0-.832-.419-.832-1.256V8.792a6.18 6.18 0 0 0-1.016-.168c-.693 1.84-1.501 2.76-2.424 2.76Zm1.76-2.768c-.603.048-1.104.259-1.504.632-.4.373-.6.723-.6 1.048 0 .325.125.488.376.488.512 0 1.088-.723 1.728-2.168ZM8.232 5.96a.166.166 0 0 0-.064-.008.166.166 0 0 0-.064.008c-.048.405-.256 1.133-.624 2.184.261.016.541.053.84.112 0-1.312-.03-2.077-.088-2.296Z" fill="#EE882A"/></svg>