<svg width="16" height="16" fill="none" xmlns="http://www.w3.org/2000/svg"><circle cx="8" cy="8" r="8" fill="#fff"/><path d="M3.54 12.672c-.56 0-1.027-.187-1.4-.56-.364-.364-.546-.789-.546-1.274 0-.495.117-.952.35-1.372.233-.43.565-.826.994-1.19.439-.364 1.008-.663 1.708-.896a7.858 7.858 0 0 1 2.324-.406 31.7 31.7 0 0 0 1.316-4.102c.01-.056.014-.126.014-.21 0-.093-.047-.173-.14-.238v-.14c.803-.15 1.535-.224 2.198-.224l.84.056c.243.43.378 1.027.406 1.792.028.756.047 2.072.056 3.948 1.008.439 1.871.994 2.59 1.666a.965.965 0 0 1-.224.364 1.37 1.37 0 0 1-.294.252l-.14.084a8.072 8.072 0 0 0-1.918-1.386c.019.532.07.98.154 1.344.13.597.285.896.462.896.103 0 .224-.023.364-.07l.21.546c-.644.41-1.26.616-1.848.616-.97 0-1.456-.733-1.456-2.198V8.136a10.817 10.817 0 0 0-1.778-.294c-1.213 3.22-2.627 4.83-4.242 4.83Zm3.08-4.844c-1.055.084-1.932.453-2.632 1.106-.7.653-1.05 1.265-1.05 1.834 0 .57.22.854.658.854.896 0 1.904-1.265 3.024-3.794ZM9.406 3.18a.291.291 0 0 0-.112-.014.291.291 0 0 0-.112.014c-.084.71-.448 1.983-1.092 3.822.457.028.947.093 1.47.196 0-2.296-.051-3.635-.154-4.018Z" fill="#EE882A"/></svg>