<svg width="32" height="28" fill="none" xmlns="http://www.w3.org/2000/svg"><path d="M.1 3.11A4 4 0 0 1 4 0h24a4 4 0 0 1 3.9 3.11L16 12.828.1 3.11ZM0 5.394v14.208l11.606-7.116L0 5.394Zm.384 16.318 13.14-8.054L16 15.172l2.478-1.514.734.45A8.98 8.98 0 0 0 16 21c0 1.052.18 2.06.512 3H4a4 4 0 0 1-3.616-2.288ZM32 5.394v9.948A8.999 8.999 0 0 0 25 12a9 9 0 0 0-3.93.9l-.676-.414L32 5.394Z" fill="#fff"/><path d="M25 28a7 7 0 1 0 0-14 7 7 0 0 0 0 14Zm.708-10.708 2.5 2.5a1.001 1.001 0 1 1-1.416 1.416L26 20.414V24a1 1 0 0 1-2 0v-3.434l-.56.61a1 1 0 1 1-1.474-1.352l2.298-2.5a1 1 0 0 1 1.444-.032Z" fill="#fff"/></svg>